PathFileType	4	(X/Y/Z)	OpenSim_Sub01_EMGStiffKnee_Gyro.trc
DataRate	CameraRate	NumFrames	NumMarkers	Units	OrigDataRate	OrigDataStartFrame	OrigNumFrames
100	100	34	8	m	100	696	5567
Frame#	Time	torso_imu_offset_imu	pelvis_imu_offset_imu	tibia_r_imu_offset_imu	femur_r_imu_offset_imu	tibia_l_imu_offset_imu	femur_l_imu_offset_imu	toes_r_imu_offset_imu	toes_l_imu_offset_imu
				X1	Y1	Z1	X2	Y2	Z2	X3	Y3	Z3	X4	Y4	Z4	X5	Y5	Z5	X6	Y6	Z6	X7	Y7	Z7	X8		Y8	Z8	

696	6.95000000	-0.29835187	-0.19838544	-0.04773055	0.00133061	0.22023344	0.19902439	1.44940859	0.84217791	4.63403428	-0.95307807	-0.25845632	0.25486273	0.00665572	0.06140743	0.76854749	-0.43908684	-0.38317507	0.63969610	0.33142994	4.70762910	1.68048810	0.09027171	-0.00786678	0.15577389
697	6.96000000	-0.28736338	-0.20066949	-0.04343914	0.06647303	0.13889579	0.18316029	1.04474326	0.88317263	4.59941268	-0.89557256	-0.22708363	0.09965394	0.03466819	0.04955707	0.79947473	-0.56001080	-0.38540086	0.64548231	0.47282336	4.55459438	1.80492345	0.11287935	-0.03267356	0.15919692
698	6.97000000	-0.26845701	-0.20224579	-0.03488428	0.14139135	0.04729953	0.16718178	0.68029507	0.94262540	4.58347275	-0.64175845	-0.17611621	-0.02630366	0.08064272	0.03195116	0.82550300	-0.65058141	-0.39848092	0.63114110	0.53287529	4.32071260	1.83997274	0.12520563	-0.07320561	0.17288660
699	6.98000000	-0.24072224	-0.20197842	-0.02055284	0.21696296	-0.04095306	0.15296678	0.50000069	1.00916170	4.55952294	-0.23869532	-0.11295427	-0.12555462	0.14426335	0.01210676	0.84560322	-0.68492561	-0.41859458	0.60277897	0.50327694	4.04257192	1.78414628	0.12923189	-0.12513112	0.19567789
700	6.99000000	-0.20649530	-0.19872112	-0.00031003	0.28100858	-0.10914312	0.13898929	0.54871499	1.02870744	4.47182753	0.20303263	-0.04061990	-0.20561989	0.22085496	-0.00168512	0.86695269	-0.63978391	-0.44257170	0.57833305	0.40825245	3.79947696	1.71428614	0.13433525	-0.17828848	0.22231595
701	7	-0.16849034	-0.19144748	0.02570120	0.32615277	-0.14801791	0.12417831	0.80677942	0.96835473	4.27898011	0.58589837	0.03126639	-0.27370587	0.30329011	-0.00436989	0.89526824	-0.50790743	-0.46726492	0.56886752	0.28224228	3.62506835	1.68232716	0.14651087	-0.22749483	0.24872274
702	7.01000000	-0.13029635	-0.17948801	0.05661790	0.35952785	-0.17074781	0.10907510	1.07041219	0.86135336	3.98437268	0.85602859	0.07314285	-0.33570406	0.37748766	-0.00087454	0.93129970	-0.32942174	-0.48954492	0.56411998	0.18755718	3.41403475	1.66020709	0.16113924	-0.28280681	0.27462963
703	7.02000000	-0.09541128	-0.16242347	0.09140407	0.39061949	-0.19375585	0.09460795	1.11539363	0.75082901	3.60017873	0.97079319	0.05490552	-0.39692026	0.42904856	0.00260341	0.97462800	-0.15128227	-0.50616947	0.55072663	0.18483374	3.04419822	1.60586267	0.17198175	-0.35642462	0.30002232
704	7.03000000	-0.06355006	-0.14259195	0.12842574	0.42399167	-0.22010245	0.08303628	0.92105559	0.64466042	3.14603748	0.93502867	-0.00649694	-0.45753400	0.45805356	0.00846932	1.02108449	0.00841894	-0.51215671	0.52791608	0.23255691	2.52540599	1.48903957	0.17793737	-0.45046351	0.31815367
705	7.04000000	-0.03151648	-0.12445174	0.16558886	0.46041962	-0.24256153	0.07764246	0.62340814	0.52359758	2.64731279	0.79010613	-0.05791178	-0.51377322	0.47573175	0.02574878	1.06361849	0.15380868	-0.50118871	0.50460808	0.21061245	1.96908274	1.28857774	0.18186189	-0.55927668	0.31709584
706	7.05000000	0.00264113	-0.10935760	0.20110733	0.50057482	-0.25371075	0.07938974	0.34104820	0.37350909	2.09970081	0.57132184	-0.06796706	-0.55460921	0.49590104	0.06065367	1.10098336	0.28929848	-0.47098886	0.48667138	0.04639101	1.41516291	0.98846777	0.18919394	-0.67886217	0.28780001
707	7.06000000	0.03695387	-0.08928034	0.23414526	0.54511005	-0.24633083	0.08227215	0.12885524	0.19754680	1.41030480	0.29312859	-0.07277816	-0.54775274	0.53921985	0.11052904	1.14939895	0.41844768	-0.43139114	0.47016814	-0.18555194	0.68338923	0.58730998	0.21274456	-0.81069880	0.23016813
708	7.07000000	0.06900282	-0.05505091	0.26396939	0.59403845	-0.21291283	0.07954053	0.01972690	0.00102996	0.48296241	-0.03300548	-0.12002580	-0.45850936	0.62591134	0.17084942	1.22681841	0.54415438	-0.39330653	0.44932622	-0.38640854	-0.41994034	0.09111544	0.26499611	-0.95743008	0.14625057
709	7.08000000	0.10048135	-0.00640435	0.28875305	0.63785408	-0.14105153	0.07260480	-0.10608275	-0.22610405	-0.58226672	-0.38260992	-0.24374450	-0.27501059	0.75076314	0.23363012	1.32881018	0.66177975	-0.35025854	0.41805630	-0.50160364	-1.68055852	-0.42363471	0.33311812	-1.12396503	0.04548332
710	7.09000000	0.13624472	0.05007037	0.30582942	0.65972683	-0.01458956	0.06915511	-0.48565867	-0.50572310	-1.53429969	-0.72117966	-0.46742986	-0.00298919	0.88898277	0.28822582	1.43371653	0.76088451	-0.28239502	0.37002596	-0.51060319	-2.57031028	-0.82624333	0.38479852	-1.31695567	-0.05701035
711	7.10000000	0.17620517	0.10832072	0.31449086	0.64747560	0.16019370	0.07613624	-1.13838333	-0.81255484	-2.15641117	-0.98019819	-0.76918841	0.31189974	1.01559205	0.32699878	1.52684237	0.83286586	-0.18183614	0.30028491	-0.38137890	-2.77574097	-1.02712648	0.39289154	-1.54186946	-0.14351602
712	7.11000000	0.20534557	0.16441184	0.31991566	0.60329321	0.31006290	0.09779819	-1.42778453	-0.98035127	-2.34551019	-0.99085382	-0.99306208	0.50672048	1.10655748	0.35145149	1.61549829	0.87502119	-0.07729926	0.20800841	-0.04514630	-2.64535325	-1.06300891	0.34709182	-1.80052081	-0.18905456
713	7.12000000	0.20711878	0.21516086	0.32791251	0.53283824	0.35457986	0.13711232	-0.65989011	-0.83397813	-2.04013201	-0.59271677	-0.97070992	0.41225455	1.13983763	0.36532650	1.70942676	0.88696738	-0.00139364	0.09477731	0.55603113	-2.61997995	-0.99309321	0.24214174	-2.09371243	-0.16928251
714	7.13000000	0.18338483	0.26277832	0.33744066	0.45386313	0.29075909	0.18537278	0.90527110	-0.45533529	-1.48730337	-0.02823428	-0.71938563	0.08972257	1.12058449	0.38059854	1.79388149	0.88670546	0.05628060	-0.01324573	1.21609012	-2.69073382	-0.86349368	0.10172504	-2.41721502	-0.08946488
715	7.14000000	0.15017201	0.31362221	0.34218745	0.39342531	0.17523064	0.22488712	2.27350180	-0.12411910	-1.17137328	0.15023742	-0.39919553	-0.22232329	1.07487516	0.41557037	1.83527980	0.90637426	0.13921433	-0.07099766	1.52588153	-2.50266305	-0.71024372	-0.02821140	-2.76292073	0.02234518
716	7.15000000	0.12169657	0.36835185	0.33684258	0.37232398	0.05598584	0.24107958	2.72813376	-0.03378671	-1.37697345	-0.31699229	-0.14940350	-0.36163442	1.01820587	0.47653718	1.81951720	0.95947599	0.26850168	-0.06317611	1.25914986	-1.86557113	-0.56175891	-0.12232532	-3.11609579	0.14350718
717	7.16000000	0.10570750	0.41037638	0.31947705	0.39205134	-0.04921001	0.22932241	2.43327094	-0.10642346	-1.77715152	-0.79629309	-0.03642269	-0.40624662	0.93303312	0.53363100	1.79180702	1.00305499	0.39615726	-0.06435480	0.74861659	-1.10527057	-0.42458962	-0.21820126	-3.44261452	0.26920575
718	7.17000000	0.10855625	0.42138637	0.28935204	0.44967537	-0.12838540	0.18762640	1.71633817	-0.21837835	-1.95331383	-0.54302963	-0.10443760	-0.47373509	0.79878628	0.55180997	1.80454952	0.98692907	0.46587555	-0.15893988	0.40834664	-0.62015750	-0.30127601	-0.35950016	-3.70636051	0.39897552
719	7.18000000	0.13357380	0.40507929	0.25418271	0.52947531	-0.17264331	0.12596316	0.91193682	-0.31237794	-1.80754057	0.37709587	-0.26656213	-0.60857355	0.64100151	0.51865823	1.85358510	0.90897206	0.48796032	-0.32982462	0.32317789	-0.46719586	-0.19484219	-0.50672189	-3.89507570	0.54812765
720	7.19000000	0.18176384	0.38208886	0.22818919	0.60588986	-0.17545732	0.06350941	0.36009070	-0.38224557	-1.48876101	1.27474216	-0.33507215	-0.79895809	0.52067440	0.43918217	1.89123288	0.80403928	0.52396694	-0.48178498	0.32454269	-0.44055742	-0.10868278	-0.55638425	-4.01483115	0.74408225
721	7.20000000	0.25114528	0.36733308	0.22188542	0.65866261	-0.13544072	0.01658366	0.26545783	-0.42203404	-1.14389535	1.65748052	-0.19978048	-1.02639037	0.45495983	0.32512601	1.89338444	0.69184182	0.60445434	-0.55406463	0.28260375	-0.38467730	-0.04355959	-0.45049386	-4.02288658	0.96689491
722	7.21000000	0.33104590	0.35745155	0.23427547	0.68405238	-0.06629780	-0.00769213	0.43005294	-0.42257245	-0.89502597	1.66566028	0.01139750	-1.25678158	0.32803308	0.20692315	1.90930158	0.54426412	0.66396045	-0.59429625	0.20197702	-0.31343085	0.00761709	-0.27111426	-3.73006160	1.05495574
723	7.22000000	0.40953164	0.34585992	0.26194474	0.68103560	0.01563909	-0.00500255	0.59191191	-0.37618461	-0.84837580	1.54489101	0.13526754	-1.45241579	0.01733437	0.11738835	1.98851926	0.32771058	0.62480988	-0.66516501	0.11168771	-0.26951217	0.05269197	-0.12282212	-2.94122740	0.83223838
724	7.23000000	0.47983097	0.32830036	0.29712946	0.64356382	0.09646215	0.01241458	0.64563806	-0.30647816	-0.94157493	1.36525620	0.13945109	-1.56443464	-0.33259518	0.07326666	1.98168696	0.05889584	0.49221415	-0.75473652	0.03404080	-0.25808609	0.08908606	-0.05960143	-1.77736374	0.29890920
725	7.24000000	0.53914751	0.30230799	0.32871930	0.56173083	0.16413223	0.01958381	0.60635799	-0.26112903	-0.98252927	1.06175538	0.09226058	-1.53543402	-0.37174840	0.07891727	1.58647623	-0.20673523	0.33517752	-0.79365386	-0.01383817	-0.25543258	0.10620008	-0.09646700	-0.60270910	-0.40921851
726	7.25000000	0.58616926	0.26809329	0.34742300	0.43925914	0.20962795	-0.00208309	0.48877615	-0.26988389	-0.85396391	0.61408453	0.04972492	-1.34996218	0.05774827	0.11797193	0.66189603	-0.41107672	0.20607763	-0.73733362	-0.02317758	-0.24409729	0.09844082	-0.21722806	0.32147214	-1.13504777
727	7.26000000	0.62369110	0.23367950	0.34961035	0.32066288	0.23275211	-0.05122156	0.29713039	-0.30737412	-0.67083887	0.14507684	0.02367720	-1.11787856	0.52715362	0.11341920	-0.44195033	-0.49107587	0.10301137	-0.61919412	-0.00963293	-0.22745156	0.07570315	-0.31594753	1.05848856	-1.66860716
728	7.27000000	0.65510144	0.20786218	0.33299006	0.25516467	0.23509465	-0.12253829	0.03649433	-0.33932537	-0.58177036	-0.20364771	0.01679570	-0.96593564	0.53568637	-0.01565006	-1.30498578	-0.38980061	0.01575325	-0.48656987	0.00752866	-0.21220545	0.05009175	-0.27913790	1.72618817	-1.80383499
729	7.28000000	0.68130824	0.18937996	0.29964385	0.24959386	0.22057540	-0.20715175	-0.24659743	-0.35067869	-0.59651134	-0.40534141	0.01704056	-0.92699138	0.12745619	-0.24070194	-1.81869260	-0.15558681	-0.04028651	-0.37923752	0.02257563	-0.19741370	0.02393014	-0.12861108	2.36058551	-1.53944413
